<svg width="48" height="24" viewBox="0 0 48 24" fill="none" xmlns="http://www.w3.org/2000/svg">
<path d="M10.4901 10.4321V3.65882L14.9447 10.4321H17.7641L12.1489 2H8.00186V10.4321H10.4901Z" fill="#BEBEBE"/>
<path d="M10.4901 12.091H8.00186V14.3027H10.4901V12.091Z" fill="#BEBEBE"/>
<path d="M10.4901 15.9616H8.00186V21.9059H10.4901V15.9616Z" fill="#BEBEBE"/>
<path d="M18.5812 15.9616H21.4462L23.7477 19.4176L26.0492 15.9616H28.9134L25.0048 21.9059H22.4906L18.5812 15.9616Z" fill="#BEBEBE"/>
<path d="M36.8239 15.9616V21.9059H39.3121V15.9616H36.8239Z" fill="#BEBEBE"/>
<path d="M39.3121 14.3027H36.8239V12.091H39.3121V14.3027Z" fill="#BEBEBE"/>
<path d="M39.3121 10.4321V2H35.3465L29.7314 10.4321H32.5492L36.8239 3.93097V10.4321H39.3121Z" fill="#BEBEBE"/>
<path d="M31.4584 12.091L30.0041 14.3027H27.1539L28.6267 12.091H31.4584Z" fill="#BEBEBE"/>
<path d="M18.8687 12.091H16.0357L17.4903 14.3027H20.3416L18.8687 12.091Z" fill="#BEBEBE"/>
<path d="M47.2607 12.0909V14.3027H0.260742V12.0909H47.2607Z" fill="#BEBEBE"/>
</svg>
