<svg width="21" height="21" viewBox="0 0 21 21" fill="none" xmlns="http://www.w3.org/2000/svg">
<g id="Layer_1" clip-path="url(#clip0_1360_1789)">
<g id="Layer_x0020_1">
<g id="_2405588477232">
<g id="Group">
<g id="Group_2">
<path id="Vector" d="M2.00244 6.36502V14.2051C2.00244 14.7091 2.26644 15.1651 2.70645 15.4211L9.49852 19.3412C9.93052 19.5892 10.4665 19.5892 10.8985 19.3412L17.6906 15.4211C18.1226 15.1731 18.3946 14.7091 18.3946 14.2051V6.36502C18.3946 5.86102 18.1306 5.40501 17.6906 5.14901L10.8985 1.22897C10.4665 0.980968 9.93052 0.980968 9.49852 1.22897L2.70645 5.14901C2.27444 5.39701 2.01044 5.86102 2.01044 6.36502H2.00244Z" fill="#213147"/>
<g id="Group_3">
<g id="Group_4">
<g id="Group_5">
<path id="Vector_2" d="M11.6745 11.8058L10.7065 14.4618C10.6825 14.5338 10.6825 14.6138 10.7065 14.6938L12.3705 19.2618L14.2985 18.1498L11.9865 11.8058C11.9305 11.6618 11.7305 11.6618 11.6745 11.8058Z" fill="#12AAFF"/>
</g>
<g id="Group_6">
<path id="Vector_3" d="M13.6188 7.3414C13.5628 7.1974 13.3628 7.1974 13.3068 7.3414L12.3388 9.99743C12.3148 10.0694 12.3148 10.1494 12.3388 10.2294L15.0668 17.7095L16.9948 16.5975L13.6188 7.3494V7.3414Z" fill="#12AAFF"/>
</g>
</g>
</g>
<g id="Group_7">
<path id="Vector_4" d="M10.1947 1.52517C10.2427 1.52517 10.2907 1.54117 10.3307 1.56517L17.6747 5.80521C17.7627 5.85321 17.8107 5.94921 17.8107 6.04521V14.5253C17.8107 14.6213 17.7547 14.7173 17.6747 14.7653L10.3307 19.0053C10.2907 19.0293 10.2427 19.0453 10.1947 19.0453C10.1467 19.0453 10.0987 19.0293 10.0587 19.0053L2.71458 14.7653C2.62658 14.7173 2.57858 14.6213 2.57858 14.5253V6.03721C2.57858 5.94121 2.63458 5.84521 2.71458 5.79721L10.0587 1.55717C10.0987 1.53317 10.1467 1.51717 10.1947 1.51717V1.52517ZM10.1947 0.285156C9.93065 0.285156 9.67465 0.349157 9.43465 0.485158L2.09057 4.7252C1.61857 4.9972 1.33057 5.49321 1.33057 6.03721V14.5173C1.33057 15.0613 1.61857 15.5573 2.09057 15.8293L9.43465 20.0694C9.66665 20.2054 9.93065 20.2694 10.1947 20.2694C10.4587 20.2694 10.7147 20.2054 10.9547 20.0694L18.2987 15.8293C18.7707 15.5573 19.0587 15.0613 19.0587 14.5173V6.03721C19.0587 5.49321 18.7707 4.9972 18.2987 4.7252L10.9467 0.485158C10.7147 0.349157 10.4507 0.285156 10.1867 0.285156H10.1947Z" fill="#9DCCED"/>
</g>
<path id="Vector_5" d="M5.33057 17.7173L6.01057 15.8613L7.37059 16.9893L6.09857 18.1574L5.33057 17.7173Z" fill="#213147"/>
<g id="Group_8">
<path id="Vector_6" d="M9.57041 5.4372H7.70639C7.57039 5.4372 7.44238 5.5252 7.39438 5.6532L3.40234 16.5973L5.33036 17.7093L9.73041 5.6532C9.77041 5.5412 9.69041 5.4292 9.57841 5.4292L9.57041 5.4372Z" fill="white"/>
<path id="Vector_7" d="M12.8342 5.4372H10.9702C10.8342 5.4372 10.7062 5.5252 10.6582 5.6532L6.09814 18.1493L8.02616 19.2613L12.9862 5.6532C13.0262 5.5412 12.9462 5.4292 12.8342 5.4292V5.4372Z" fill="white"/>
</g>
</g>
</g>
</g>
</g>
</g>
<defs>
<clipPath id="clip0_1360_1789">
<rect width="20.0002" height="20.0002" fill="white" transform="translate(0.195312 0.285156)"/>
</clipPath>
</defs>
</svg>
