<svg width="395" height="574" viewBox="0 0 395 574" fill="none" xmlns="http://www.w3.org/2000/svg">
<rect y="0.5" width="395" height="573" rx="10" fill="#1A1A1A"/>
<g clip-path="url(#clip0_2_2841)">
<rect opacity="0.2" x="20.5" y="21" width="354" height="532" rx="26.5" stroke="url(#paint0_linear_2_2841)"/>
<g clip-path="url(#clip1_2_2841)">
<path d="M666.86 159.778C666.86 159.778 528.023 139.981 357.316 138.556C186.62 137.152 -15.9487 154.067 -143.686 227.789C-207.548 264.66 -252.759 315.862 -265.594 386.09C-278.409 456.306 -258.904 545.305 -193.934 657.837L-191.858 656.639C-256.673 544.376 -275.94 455.932 -263.238 386.528C-250.557 317.136 -205.964 266.54 -142.487 229.864C-15.5424 156.545 186.794 139.515 357.309 140.94C442.56 141.643 519.894 146.943 575.873 152.065C603.869 154.637 626.546 157.152 642.205 159.014C650.024 159.951 656.115 160.724 660.25 161.27C664.384 161.817 666.529 162.128 666.529 162.128L666.869 159.746L666.86 159.778Z" fill="url(#paint1_linear_2_2841)"/>
<path d="M-175.002 661.629C-239.589 549.761 -257.913 461.464 -244.161 392.008C-230.39 322.539 -184.58 271.656 -120.252 234.488C3.28066 163.167 194.872 142.959 355.753 140.593C436.198 139.394 508.955 142.661 561.731 146.117C588.108 147.852 609.507 149.638 624.34 150.981C631.757 151.653 637.544 152.186 641.517 152.549C643.504 152.73 645.026 152.875 646.094 152.95C646.623 153.004 647.021 153.024 647.334 153.037L647.732 153.056L647.925 153.055C647.925 153.055 648.077 153.078 648.442 152.895C648.587 152.811 648.824 152.647 648.974 152.284C649.124 151.92 649.021 151.454 648.901 151.246C648.745 150.977 648.602 150.921 648.534 150.85C648.289 150.714 648.236 150.717 648.158 150.679L647.437 152.977L647.672 152.233L647.36 152.939L647.458 152.965L647.693 152.221L647.381 152.927L647.825 151.923L647.214 152.829L647.369 152.906L647.813 151.902L647.202 152.809L647.851 151.825L646.834 152.412C646.99 152.682 647.112 152.75 647.202 152.809L647.851 151.825L646.741 151.387C646.591 151.75 646.682 152.196 646.814 152.424L647.851 151.825L647.252 150.787C647.107 150.871 646.891 151.024 646.741 151.387L647.851 151.825L647.803 151.742L647.706 150.663C647.706 150.663 647.629 150.625 647.264 150.808L647.803 151.742L647.706 150.663L647.756 151.133L647.739 150.672L647.777 151.121L647.76 150.66C647.76 150.66 647.501 150.643 647.156 150.621C644.332 150.426 633.908 149.387 617.502 147.956C559.996 142.968 428.452 133.406 284.728 140.422C140.984 147.45 -14.9541 170.983 -121.376 232.398C-186.089 269.76 -232.53 321.229 -246.455 391.533C-260.36 461.826 -241.778 550.665 -177.024 662.824L-174.948 661.626L-175.002 661.629Z" fill="url(#paint2_linear_2_2841)"/>
<path d="M-158.146 666.619C-222.578 555.021 -239.932 466.773 -224.957 397.136C-210.003 327.511 -162.768 276.22 -97.4649 238.489C22.4355 169.265 203.093 146.127 354.222 140.148C429.802 137.136 498.005 138.411 547.56 140.268C572.344 141.207 592.464 142.265 606.534 143.053C613.569 143.446 619.084 143.749 622.917 143.916C624.823 144.006 626.318 144.055 627.403 144.065C627.929 144.066 628.369 144.061 628.702 144.063L629.172 144.013C629.32 143.983 629.439 143.997 629.783 143.826C629.908 143.754 630.136 143.622 630.307 143.247C630.489 142.892 630.404 142.361 630.251 142.144C630.107 141.895 629.973 141.807 629.872 141.727C629.604 141.55 629.473 141.515 629.276 141.462L628.576 143.748L628.641 143.766L628.924 143.104L628.519 143.698L628.629 143.745L628.912 143.084L628.507 143.677L629.106 142.75L628.152 143.301C628.308 143.571 628.45 143.627 628.507 143.677L629.106 142.75L629.169 142.714L628.1 142.252C627.917 142.607 628.011 143.106 628.152 143.301L629.169 142.714L628.1 142.252L629.148 142.726L628.573 141.73C628.469 141.79 628.261 141.909 628.1 142.252L629.148 142.726L629.04 142.539L628.804 141.651L628.597 141.771L629.04 142.539L628.804 141.651L628.901 142.011L628.825 141.639L628.922 141.999L628.846 141.627C628.846 141.627 628.59 141.664 628.257 141.663C626.863 141.693 623.623 141.544 618.862 141.303C582.996 139.43 458.872 131.311 316.126 139.589C173.393 147.888 12.0014 172.521 -98.6424 236.402C-164.311 274.315 -212.167 326.159 -227.275 396.62C-242.383 467.082 -224.8 555.916 -160.201 667.805L-158.126 666.607L-158.146 666.619Z" fill="url(#paint3_linear_2_2841)"/>
<path d="M-141.289 671.61C-205.661 560.115 -221.913 471.812 -205.634 401.893C-189.355 331.973 -140.517 280.199 -74.102 241.854C41.9172 174.871 211.401 149.108 352.702 139.671C423.37 134.957 486.968 134.296 533.348 134.583C556.538 134.726 575.403 135.097 588.731 135.317C595.384 135.433 600.648 135.493 604.373 135.473C606.219 135.459 607.699 135.435 608.79 135.359C609.325 135.326 609.773 135.289 610.157 135.234C610.54 135.178 610.795 135.142 611.222 134.923C611.368 134.839 611.596 134.707 611.767 134.332C611.97 133.965 611.893 133.401 611.717 133.143C611.42 132.677 611.171 132.628 610.992 132.51L610.354 132.269L609.654 134.555L609.961 134.655L610.409 133.898L609.662 134.329C609.83 134.62 609.949 134.634 609.961 134.655L610.409 133.898L610.638 133.766L609.643 133.289C609.469 133.611 609.542 134.122 609.683 134.317L610.658 133.754L609.663 133.277L610.581 133.716L610.066 132.823C610.066 132.823 609.817 132.967 609.663 133.277L610.581 133.716L610.353 133.321L610.149 132.775L610.066 132.823L610.353 133.321L610.149 132.775L610.021 132.794C609.65 132.87 608.72 132.936 607.412 132.972C597.22 133.294 563.283 132.077 514.794 132.067C442.04 132.064 336.403 134.829 228.011 149.646C119.619 164.462 8.50431 191.339 -75.262 239.701C-142.03 278.25 -191.481 330.544 -207.926 401.279C-224.391 472.025 -207.866 560.945 -143.326 672.731L-141.251 671.532L-141.289 671.61Z" fill="url(#paint4_linear_2_2841)"/>
<path d="M-124.433 676.6C-188.829 565.063 -203.925 476.509 -186.135 406.187C-168.357 335.845 -117.697 283.489 -49.9947 244.401C61.7905 179.862 219.87 151.745 351.199 139.127C416.874 132.812 475.866 130.356 519.073 129.126C540.681 128.495 558.325 128.187 570.909 127.84C577.202 127.666 582.216 127.483 585.853 127.265C587.672 127.156 589.146 127.024 590.254 126.883C590.818 126.806 591.296 126.723 591.688 126.635C592.101 126.536 592.419 126.463 592.792 126.247C592.979 126.139 593.228 125.995 593.441 125.596C593.665 125.218 593.605 124.588 593.405 124.288C593.097 123.802 592.811 123.691 592.522 123.525C592.224 123.393 591.905 123.273 591.5 123.147L590.8 125.433C591.107 125.532 591.348 125.614 591.47 125.682L591.494 125.724L591.536 125.7L591.931 125.139L591.35 125.475L591.536 125.7L591.931 125.139L592.222 124.971L591.313 124.5C591.136 124.768 591.189 125.291 591.33 125.487L592.222 124.971L591.313 124.5L592.01 124.845L591.603 124.139C591.603 124.139 591.458 124.223 591.301 124.479L591.998 124.824L591.591 124.118C591.591 124.118 590.81 124.348 589.744 124.465C585.546 125.007 575.663 125.289 561.295 125.615C510.977 126.799 405.354 128.532 288.587 143.701C171.808 158.849 43.8934 187.4 -51.1962 242.272C-119.23 281.552 -170.483 334.416 -188.46 405.564C-206.436 476.713 -191.075 565.918 -126.5 677.765L-124.424 676.567L-124.433 676.6Z" fill="url(#paint5_linear_2_2841)"/>
<path d="M-107.578 681.59C-172.141 569.763 -185.92 480.807 -166.447 409.901C-146.974 338.996 -94.2003 285.89 -25.0246 245.951C82.1323 184.084 228.464 153.977 349.676 138.456C410.283 130.695 464.63 126.52 504.668 123.827C524.697 122.475 541.152 121.498 553.026 120.592C558.969 120.149 563.786 119.72 567.324 119.283C569.104 119.058 570.583 118.84 571.739 118.588C572.894 118.336 573.74 118.124 574.404 117.741C574.674 117.585 574.973 117.385 575.206 116.973C575.312 116.774 575.403 116.5 575.396 116.2C575.401 115.92 575.31 115.668 575.191 115.46C574.879 114.921 574.492 114.729 574.072 114.529C573.652 114.329 573.157 114.144 572.556 113.965L571.856 116.251C572.392 116.412 572.755 116.562 572.987 116.677L573.199 116.804L573.521 116.452L573.106 116.691L573.178 116.816L573.521 116.452L573.833 116.272L572.986 116.291L573.106 116.691L573.854 116.26L573.006 116.279L573.821 116.251L573.176 115.71C573.176 115.71 572.99 116.011 572.994 116.258L573.809 116.231L573.164 115.689L573.481 115.95L573.235 115.621L573.173 115.657L573.501 115.938L573.256 115.609L573.215 115.633C573.028 115.741 572.313 115.988 571.252 116.212C567.127 117.072 557.791 117.868 544.424 118.778C497.546 121.989 400.501 126.934 292.376 144.225C184.25 161.517 65.0446 191.155 -26.2141 243.843C-95.7012 283.962 -149.05 337.51 -168.742 409.234C-188.434 480.958 -174.387 570.617 -109.645 682.755L-107.569 681.557L-107.578 681.59Z" fill="url(#paint6_linear_2_2841)"/>
<path d="M-90.7209 686.58C-155.584 574.234 -167.888 484.621 -146.454 412.943C-125.019 341.264 -69.7763 287.259 1.08047 246.35C103.111 187.442 237.304 155.82 348.214 137.696C403.663 128.623 453.292 122.938 490.197 118.844C508.638 116.803 523.904 115.157 535.134 113.71C540.749 112.986 545.368 112.312 548.861 111.651C552.396 110.966 554.744 110.385 556.156 109.57C556.592 109.319 556.962 109.05 557.254 108.549C557.39 108.305 557.51 107.986 557.491 107.665C557.492 107.332 557.387 107.006 557.255 106.777C556.907 106.175 556.419 105.904 555.853 105.595C555.266 105.297 554.584 105.026 553.721 104.778L553.02 107.064C553.797 107.307 554.402 107.539 554.768 107.743L555.159 107.988L555.195 108.05L555.358 107.9L555.191 107.996L555.215 108.038L555.358 107.9L555.731 107.685L555.119 107.679L555.191 107.996L555.71 107.697L555.098 107.691L555.603 107.703L555.206 107.351L555.11 107.711L555.615 107.724L555.218 107.372L554.949 107.528C554.163 108.037 551.821 108.725 548.411 109.337C535.545 111.785 506.72 114.535 467.882 118.97C351.297 132.346 144.007 161.119 -0.105812 244.295C-71.2532 285.372 -127.062 339.787 -148.728 412.263C-170.414 484.751 -157.83 575.089 -92.7636 687.787L-90.6881 686.589L-90.7209 686.58Z" fill="url(#paint7_linear_2_2841)"/>
<path d="M-73.844 691.559C-139.222 578.321 -149.809 487.799 -126.097 415.082C-102.372 342.386 -44.1882 287.291 28.5781 245.28C124.797 189.728 246.412 157.121 346.733 136.808C396.91 126.656 441.773 119.572 475.488 114.22C492.346 111.544 506.438 109.302 517.023 107.314C522.322 106.33 526.732 105.389 530.212 104.514C533.701 103.607 536.197 102.802 537.816 101.868C538.501 101.472 539.046 101.074 539.439 100.46C539.625 100.159 539.763 99.7752 539.782 99.3768C539.801 98.9784 539.668 98.5569 539.488 98.2456C539.093 97.5606 538.467 97.1473 537.734 96.7403C536.98 96.3453 536.024 95.9839 534.842 95.6147L534.142 97.9008C535.226 98.2437 536.071 98.558 536.638 98.8676C537.192 99.1565 537.454 99.4199 537.446 99.4526L537.674 99.3208L537.427 99.3248L537.446 99.4526L537.674 99.3208L537.427 99.3248L537.686 99.3415L537.454 99.2266L537.427 99.3248L537.686 99.3415L537.454 99.2266L537.282 99.4087C537.149 99.5134 536.944 99.6867 536.675 99.8425C535.471 100.537 533.052 101.381 529.679 102.249C516.947 105.504 490.395 109.46 455.056 115.113C348.986 132.131 163.297 164.815 27.4365 243.254C-45.6203 285.434 -104.32 340.881 -128.317 414.399C-152.294 487.905 -141.433 579.237 -75.8628 692.808L-73.7874 691.609L-73.844 691.559Z" fill="url(#paint8_linear_2_2841)"/>
<path d="M-56.9888 696.548C-123.122 582.003 -131.726 490.17 -105.258 416.139C-78.7895 342.107 -17.1098 285.687 57.8565 242.405C147.413 190.699 255.814 157.779 345.257 135.833C389.972 124.849 429.967 116.618 460.479 110.127C475.734 106.882 488.644 104.077 498.609 101.59C508.594 99.0897 515.573 96.9422 519.247 94.8212C520.347 94.1861 521.188 93.5343 521.741 92.7174C522.006 92.3149 522.224 91.8294 522.246 91.2913C522.279 90.7739 522.14 90.2454 521.888 89.8095C521.421 89.0001 520.657 88.4447 519.68 87.9021C518.682 87.3714 517.461 86.8864 515.907 86.3998L515.207 88.686C516.662 89.1462 517.773 89.5841 518.56 89.9878C519.346 90.3916 519.746 90.797 519.821 90.9751L519.893 91.0996C519.893 91.0996 519.853 91.3168 519.56 91.6243C519.267 91.9318 518.763 92.3056 518.058 92.713C514.882 94.5464 507.918 96.7682 498.016 99.2201C463.319 107.906 392.244 120.493 310.262 142.228C228.259 163.975 135.274 194.885 56.6342 240.288C-18.6018 283.725 -80.7884 340.467 -107.553 415.278C-134.319 490.09 -125.437 582.786 -59.1002 697.684L-57.0247 696.486L-56.9888 696.548Z" fill="url(#paint9_linear_2_2841)"/>
<path d="M-40.1323 701.539C-107.368 585.084 -113.525 491.451 -83.714 415.684C-53.9033 339.917 12.0497 281.886 89.5808 237.151C171.272 189.987 265.724 157.593 343.813 134.675C382.852 123.205 417.813 114.117 445.081 106.704C458.708 102.987 470.409 99.7182 479.744 96.7635C489.08 93.8088 496.021 91.2126 500.276 88.7561C502.103 87.7017 503.427 86.688 504.281 85.5308C504.697 84.9583 504.992 84.3178 505.078 83.604C505.164 82.8902 504.982 82.1925 504.623 81.5699C504.06 80.5944 503.114 79.8673 501.892 79.189C500.638 78.502 499.053 77.867 497.074 77.2665L496.374 79.5525C498.255 80.1268 499.708 80.7267 500.73 81.2988C501.773 81.859 502.344 82.4153 502.559 82.7889C502.691 83.0172 502.721 83.1657 502.69 83.3501C502.673 83.6088 502.455 84.0943 501.857 84.6885C501.259 85.2827 500.323 85.9617 499.078 86.6807C495.176 88.9334 488.3 91.5472 479.027 94.4659C446.573 104.735 384.727 119.217 313.125 141.434C241.522 163.652 160.111 193.663 88.4033 235.064C10.6559 279.951 -55.7833 338.29 -85.9147 414.796C-116.034 491.323 -109.65 585.876 -42.1662 702.714L-40.0907 701.515L-40.1323 701.539Z" fill="url(#paint10_linear_2_2841)"/>
<path d="M-23.2766 706.53C-92.1057 587.314 -95.1497 491.164 -61.1043 413.146C-27.0708 335.106 44.3133 275.075 124.697 228.666C196.882 186.99 276.298 156.304 342.347 133.335C375.372 121.85 405.076 112.283 428.881 104.24C452.685 96.1974 470.569 89.691 480.116 84.179C483.146 82.4295 485.377 80.7816 486.734 79.0574C487.402 78.2013 487.874 77.2926 488.042 76.3377C488.198 75.362 488.009 74.364 487.506 73.4923C486.835 72.33 485.683 71.3899 484.149 70.5049C482.593 69.632 480.613 68.8382 478.151 68.0733L477.451 70.3594C479.814 71.098 481.652 71.8359 482.975 72.5939C484.319 73.34 485.083 74.0887 485.431 74.6906C485.694 75.1472 485.737 75.5096 485.689 75.9528C485.6 76.6131 485.054 77.537 483.926 78.6033C482.798 79.6695 481.13 80.8541 478.951 82.1123C469.756 87.4207 451.896 93.9685 428.133 101.987C356.795 126.101 232.087 163.897 123.519 226.578C42.8867 273.132 -28.9004 333.423 -63.2874 412.192C-97.6744 490.962 -94.4208 588.097 -25.3401 707.749L-23.2646 706.55L-23.2766 706.53Z" fill="url(#paint11_linear_2_2841)"/>
<path d="M-6.42136 711.52C-77.6023 588.183 -76.4142 488.483 -36.7226 407.398C2.98983 326.301 81.4286 263.775 165.07 215.484C225.218 180.758 288.02 153.41 340.942 131.766C393.886 110.109 436.888 94.1929 457.696 82.2069C462.885 79.2112 466.692 76.4594 469.014 73.8183C470.179 72.4814 470.979 71.1343 471.315 69.7505C471.65 68.3668 471.445 66.9081 470.702 65.6213C469.887 64.21 468.517 63.036 466.637 61.9356C464.735 60.8472 462.314 59.8651 459.305 58.9184L458.604 61.2044C461.504 62.1041 463.794 63.0511 465.451 64.0038C467.108 64.9566 468.144 65.9359 468.647 66.8076C469.102 67.5963 469.189 68.3213 468.994 69.1812C468.696 70.4875 467.529 72.1573 465.43 74.0334C463.319 75.8888 460.329 77.9473 456.531 80.1401C436.108 91.9312 393.035 107.916 340.079 129.552C287.115 151.22 224.218 178.595 163.926 213.405C80.097 261.804 1.25192 324.538 -38.8052 406.331C-78.895 488.116 -79.9206 588.913 -8.4226 712.703L-6.34712 711.505L-6.42136 711.52Z" fill="url(#paint12_linear_2_2841)"/>
<path d="M10.4346 716.509C-27.0715 651.547 -43.8817 592.761 -45.3255 539.55C-47.4852 459.742 -15.1281 392.412 34.121 335.502C83.3821 278.613 149.53 232.232 214.783 194.558C302.368 143.99 388.234 109.138 429.473 85.3282C438.813 79.9359 445.878 75.1097 450.24 70.6819C452.415 68.4576 453.931 66.3374 454.661 64.1998C455.392 62.0622 455.248 59.8483 454.134 57.9181C452.127 54.5382 447.636 51.984 440.382 49.7244L439.682 52.0105C446.715 54.1759 450.722 56.7056 452.058 59.1163C452.837 60.4654 452.938 61.7907 452.393 63.434C451.583 65.8663 449.07 68.8946 444.965 72.2333C440.86 75.572 435.24 79.2592 428.287 83.2735C387.359 106.903 301.348 141.84 213.597 192.503C126.426 242.831 37.4945 308.704 -10.9261 394.801C-35.1305 437.859 -49.1758 485.956 -47.7151 539.629C-46.2544 593.301 -29.2908 652.496 8.37112 717.728L10.4466 716.53L10.4346 716.509Z" fill="url(#paint13_linear_2_2841)"/>
<path d="M27.2912 721.5C-14.5047 649.108 -29.8127 583.865 -26.5756 525.1C-21.7304 436.959 24.8666 363.234 86.9703 301.891C149.053 240.561 226.593 191.67 293.049 153.301C324.576 135.1 353.613 119.248 377.336 105.552C398.236 93.4852 415.005 83.0838 425.786 74.1478C431.164 69.659 435.073 65.5483 437.255 61.6594C438.34 59.7045 439.009 57.7961 439.132 55.8991C439.266 54.0228 438.833 52.1698 437.862 50.4886C435.469 46.3912 430.116 43.2552 421.504 40.5617L420.804 42.8477C429.216 45.4351 434.019 48.529 435.807 51.6749C436.55 52.9617 436.845 54.2862 436.759 55.7194C436.598 58.22 435.125 61.2289 432.277 64.5887C428.049 69.6312 420.848 75.4212 411.305 81.8994C401.762 88.3775 389.856 95.5558 376.158 103.464C352.477 117.137 323.419 133 291.872 151.214C203.166 202.428 94.5945 272.39 29.0735 366.063C-3.68694 412.899 -25.6749 465.692 -28.9454 524.974C-32.2158 584.256 -16.7272 650.004 25.2485 722.708L27.324 721.509L27.2912 721.5Z" fill="url(#paint14_linear_2_2841)"/>
<path d="M44.1471 726.491C-15.599 623.008 -19.5497 532.861 7.38754 454.657C47.7917 337.324 158.1 246.74 255.007 179.582C303.457 146.02 348.52 118.287 379.82 95.9545C395.48 84.7821 407.689 74.9658 415.201 66.3118C418.957 61.9849 421.561 57.9632 422.801 54.1201C424.042 50.2769 423.829 46.5532 421.936 43.274C419.063 38.3463 412.756 34.516 402.635 31.3655L401.935 33.6516C411.835 36.7079 417.589 40.4426 419.881 44.4603C421.93 48.0093 421.621 51.9792 419.027 56.8806C414.166 66.0519 401.031 77.6203 382.263 91.2232C316.615 138.949 182.4 212.619 89.1364 317.051C42.5149 369.261 6.09709 429.223 -6.3394 497.505C-18.7759 565.788 -7.15678 642.375 42.1012 727.645L44.1767 726.446L44.1471 726.491Z" fill="url(#paint15_linear_2_2841)"/>
<path d="M61.0041 731.48C3.83426 632.459 -0.60128 544.252 24.1076 466.311C61.1754 349.383 164.233 255.54 254.283 184.317C299.314 148.716 341.076 118.765 369.707 94.3487C384.036 82.1181 395.091 71.308 401.656 61.7338C404.955 56.9511 407.123 52.4617 407.996 48.2219C408.869 43.9821 408.349 39.9655 406.276 36.3749C402.861 30.4598 395.477 25.8673 383.683 22.2159L382.983 24.5021C394.536 28.0712 401.321 32.5385 404.2 37.5732C406.549 41.6411 406.587 46.2128 404.477 51.665C400.515 61.8667 388.783 74.6179 371.638 89.4977C341.668 115.573 295.365 148.394 245.724 188.041C171.246 247.506 89.226 322.284 43.4416 412.947C-2.37559 503.601 -11.7905 610.237 58.9166 732.658L60.9921 731.459L61.0041 731.48Z" fill="url(#paint16_linear_2_2841)"/>
<path d="M77.8601 736.471C23.2546 641.891 18.3463 555.645 40.9044 478.005C74.7164 361.573 170.617 264.584 253.91 189.375C295.567 151.765 334.029 119.596 360.043 93.093C373.054 79.8248 382.942 68.0004 388.57 57.4732C391.379 52.2259 393.123 47.2896 393.629 42.6531C394.113 38.0286 393.315 33.6743 391.062 29.7724C387 22.7365 378.468 17.2574 364.847 13.0286L364.147 15.3147C377.515 19.4406 385.437 24.7738 389.008 30.9587C391.668 35.5663 392.054 40.7398 390.44 46.7635C387.413 58.058 377.03 71.9951 361.528 88.1399C334.398 116.45 291.72 151.716 245.805 193.501C176.9 256.197 100.685 333.601 58.5026 424.702C16.308 515.783 8.29118 620.671 75.8589 737.654L77.9343 736.456L77.8601 736.471Z" fill="url(#paint17_linear_2_2841)"/>
<path d="M94.7157 741.461C42.6506 651.281 37.3141 567.026 57.7366 489.761C88.3616 373.895 177.222 273.915 253.827 194.791C292.134 155.213 327.352 120.877 350.729 92.2988C362.422 77.9932 371.152 65.1216 375.812 53.6861C380.473 42.2506 381.076 32.0787 376.139 23.5278C371.334 15.2051 361.507 8.7299 345.927 3.88856L345.227 6.17468C360.554 10.9131 369.746 17.2008 374.084 24.7141C377.056 29.8612 377.854 35.6542 376.728 42.2822C374.648 54.6901 365.626 69.834 351.726 87.2677C327.436 117.812 288.36 155.482 246.092 199.368C182.724 265.231 112.169 345.151 73.5281 436.588C34.8545 528.016 28.2001 631.093 92.6522 742.68L94.7277 741.481L94.7157 741.461Z" fill="url(#paint18_linear_2_2841)"/>
<path d="M111.572 746.451C62.0353 660.651 56.3035 578.395 74.6383 501.588C102.157 386.382 184.102 283.531 254.1 200.584C289.093 159.1 321.12 122.594 341.86 91.9404C352.235 76.5973 359.798 62.7114 363.509 50.3021C367.211 37.9256 367.01 26.8892 361.666 17.6326C356.01 7.83634 344.784 0.231911 327.028 -5.26264L326.328 -2.97653C343.789 2.43907 354.39 9.8233 359.59 18.8309C362.886 24.5384 364.097 30.9509 363.49 38.1918C362.35 51.746 354.7 68.1174 342.423 86.8281C320.941 119.598 285.421 159.643 246.798 205.575C188.866 274.526 123.918 356.826 88.7091 448.551C53.5088 540.243 48.1599 641.459 109.488 747.682L111.563 746.484L111.572 746.451Z" fill="url(#paint19_linear_2_2841)"/>
<path d="M128.428 751.441C81.3952 669.978 75.292 589.763 91.6046 513.432C116.097 398.976 191.232 293.388 254.736 206.719C286.493 163.368 315.312 124.756 333.457 92.0037C342.513 75.623 348.93 60.7107 351.649 47.3516C354.369 33.9926 353.41 22.1213 347.622 12.0968C341.008 0.640124 328.233 -8.25644 308.147 -14.4808L307.446 -12.1947C327.227 -6.07009 339.372 2.55283 345.567 13.2831C352.805 25.8189 352.15 41.5558 345.498 60.4227C333.906 93.4047 304.073 135.341 268.416 184.016C214.949 257.058 148.426 345.305 110.708 442.269C72.998 539.201 64.1887 645.017 126.34 752.618L128.416 751.42L128.428 751.441Z" fill="url(#paint20_linear_2_2841)"/>
<path d="M145.284 756.432C100.732 679.265 94.2816 601.133 108.641 525.348C130.176 411.714 198.662 303.572 255.753 213.273C284.297 168.096 309.986 127.417 325.526 92.5987C333.296 75.1893 338.546 59.2626 340.284 44.921C342.033 30.6002 340.291 17.8525 334.024 6.99779C326.319 -6.34753 311.859 -16.6783 289.224 -23.6731L288.524 -21.387C310.831 -14.48 324.639 -4.46435 331.949 8.19607C339.869 21.915 340.293 38.9936 335.062 59.1711C325.971 94.4724 299.648 138.893 267.699 189.772C219.788 266.11 159.275 357.002 125.381 454.359C91.496 551.684 84.2926 655.632 143.164 757.6L145.239 756.402L145.284 756.432Z" fill="url(#paint21_linear_2_2841)"/>
<path d="M162.16 761.41C120.077 688.519 113.311 612.478 125.765 537.323C144.436 424.623 206.41 314.07 257.18 220.252C282.559 173.332 305.151 130.596 318.132 93.7404C324.616 75.3023 328.699 58.3611 329.466 43.0578C330.246 27.7752 327.729 14.1185 320.971 2.41278C312.032 -13.0703 295.749 -24.9773 270.378 -32.8279L269.678 -30.5419C294.688 -22.7878 310.328 -11.2286 318.896 3.61106C327.523 18.5545 329.026 36.9749 325.249 58.4716C318.639 96.1043 295.78 142.98 267.503 196C225.067 275.542 170.46 368.946 140.298 466.585C110.124 564.202 104.457 666.211 160.105 762.596L162.181 761.398L162.16 761.41Z" fill="url(#paint22_linear_2_2841)"/>
<path d="M179.017 766.4C139.378 697.743 132.343 623.822 142.927 549.359C158.802 437.665 214.405 324.896 259.001 227.669C281.293 179.045 300.823 134.313 311.223 95.4326C321.615 56.5851 322.936 23.5002 308.433 -1.66654C298.104 -19.5572 279.803 -33.2328 251.522 -42.0039L250.822 -39.7178C278.731 -31.064 296.388 -17.7362 306.379 -0.480239C315.725 15.7085 318.34 35.4795 315.986 58.3402C311.869 98.3251 292.431 147.626 267.724 202.708C230.682 285.362 181.832 381.116 155.288 478.934C128.744 576.753 124.535 676.731 176.995 767.595L179.071 766.397L179.017 766.4Z" fill="url(#paint23_linear_2_2841)"/>
<path d="M195.872 771.39C158.641 706.905 151.36 635.147 160.143 561.447C173.327 450.891 222.708 336.069 261.201 235.557C280.442 185.291 296.967 138.614 304.844 97.7589C312.7 56.9162 311.967 21.8072 296.41 -5.18597C284.535 -25.754 264.052 -41.4353 232.609 -51.1762L231.909 -48.8901C262.947 -39.2753 282.795 -23.9745 294.355 -3.99967C304.433 13.4551 308.192 34.5854 307.23 58.8014C305.584 101.15 289.518 152.793 268.358 209.896C236.597 295.562 193.386 393.511 170.381 491.417C147.363 589.303 144.532 687.212 193.829 772.597L195.904 771.399L195.872 771.39Z" fill="url(#paint24_linear_2_2841)"/>
<path d="M212.728 776.38C177.894 716.046 170.391 646.491 177.45 573.593C188.024 464.267 231.365 347.564 263.873 243.922C280.131 192.085 293.686 143.524 299.06 100.683C304.426 57.8744 301.638 20.7413 285.003 -8.11984C271.391 -31.6973 248.553 -49.5887 213.72 -60.3608L213.019 -58.0748C247.427 -47.4167 269.651 -29.9179 282.948 -6.93355C304.634 30.5791 302.454 83.171 288.856 144.791C268.495 237.213 222.671 349.76 195.047 461.956C167.423 574.152 157.954 686.159 210.694 777.555L212.769 776.356L212.728 776.38Z" fill="url(#paint25_linear_2_2841)"/>
<path d="M229.584 781.372C197.123 725.147 189.451 657.792 194.826 585.811C202.903 477.816 240.357 359.448 267.016 252.818C280.339 199.493 290.983 149.099 293.902 104.354C296.809 59.5888 291.979 20.4523 274.242 -10.3183C258.712 -37.2165 233.277 -57.5932 194.812 -69.4788L194.112 -67.1927C232.13 -55.4092 256.948 -35.4785 272.178 -9.09921C295.377 31.082 296.254 86.4754 286.26 150.552C271.317 246.654 232.108 362.079 208.87 474.731C185.653 587.371 178.319 697.371 227.512 782.623L229.587 781.425L229.584 781.372Z" fill="url(#paint26_linear_2_2841)"/>
<path d="M246.441 786.361C216.316 734.183 208.503 669.124 212.292 598.086C217.965 491.535 249.672 371.697 270.652 262.23C291.6 152.754 301.917 53.6227 264.164 -11.8618C246.502 -42.4544 218.26 -65.5832 175.911 -78.6851L175.211 -76.399C217.102 -63.4199 244.726 -40.7372 262.089 -10.6635C286.857 32.2366 290.713 90.3931 284.264 156.824C274.613 256.484 241.87 374.624 222.89 487.557C203.923 600.511 198.648 708.326 244.333 787.55L246.408 786.352L246.441 786.361Z" fill="url(#paint27_linear_2_2841)"/>
<path d="M263.296 791.351C235.484 743.179 227.571 680.392 229.834 610.401C233.207 505.427 259.394 384.32 274.804 272.202C290.202 160.064 294.906 56.8673 254.853 -12.6022C234.818 -47.3042 203.537 -73.4931 157.041 -87.8815L156.341 -85.5954C202.346 -71.3386 233.03 -45.6078 252.799 -11.4159C279.149 34.2239 285.971 95.1227 283.011 163.856C278.559 266.963 252.084 387.571 237.204 500.656C222.346 613.728 218.999 719.323 261.241 792.537L263.317 791.339L263.296 791.351Z" fill="url(#paint28_linear_2_2841)"/>
<path d="M280.153 796.342C254.618 752.113 246.641 691.659 247.458 622.808C248.645 519.511 269.489 397.393 279.51 282.797C289.499 168.191 288.749 61.0597 246.338 -12.445C223.691 -51.6715 189.125 -81.2495 138.155 -97.0121L137.455 -94.726C187.901 -79.1037 221.891 -49.9959 244.263 -11.2467C272.219 37.1742 281.972 100.753 282.374 171.668C282.985 278.079 262.605 400.952 251.685 513.992C240.785 627.02 239.271 730.229 278.078 797.54L280.153 796.342Z" fill="url(#paint29_linear_2_2841)"/>
<path d="M297.009 801.332C273.726 761.005 265.73 702.915 265.149 635.285C264.267 533.82 279.973 410.904 284.747 294.025C289.521 177.145 283.433 66.2319 238.65 -11.3822C213.126 -55.5899 174.961 -88.9567 119.264 -106.196L118.564 -103.91C173.725 -86.8317 211.303 -53.9557 236.595 -10.1959C266.157 41.0062 278.805 107.203 282.513 180.25C288.07 289.81 273.546 414.726 266.423 527.538C259.334 640.358 259.515 741.039 294.966 802.539L297.042 801.341L297.009 801.332Z" fill="url(#paint30_linear_2_2841)"/>
<path d="M313.864 806.322C292.798 769.835 284.807 714.149 282.951 647.809C280.124 548.297 290.891 424.83 290.611 305.859C290.33 186.888 279.057 72.4105 231.869 -9.32183C203.182 -59.0088 161.146 -96.5884 100.341 -115.39L99.6407 -113.104C159.835 -94.4483 201.313 -57.4042 229.793 -8.12355C292.205 99.8811 291.522 266.84 285.714 425.162C282.832 504.338 278.651 581.358 280.537 647.847C282.436 714.356 290.336 770.316 311.777 807.5L313.852 806.301L313.864 806.322Z" fill="url(#paint31_linear_2_2841)"/>
<path d="M330.732 811.333C311.835 778.603 303.925 725.36 300.833 660.426C296.187 562.987 302.223 439.235 297.099 318.44C291.941 197.636 275.653 79.744 226.113 -6.10971C193.951 -61.8155 147.706 -104.049 81.507 -124.524L80.8068 -122.238C146.395 -101.909 192.103 -60.2229 224.058 -4.92342C289.685 108.697 296.823 279.857 296.955 439.122C297.034 518.775 295.386 595.439 298.476 660.513C301.599 725.596 309.405 779.092 328.677 812.519L330.752 811.321L330.732 811.333Z" fill="url(#paint32_linear_2_2841)"/>
<path d="M347.588 816.323C330.815 787.32 323.021 736.53 318.814 673.069C312.466 577.858 314.046 454.105 304.23 331.702C294.413 209.299 273.274 88.2299 221.362 -1.73335C185.389 -64.0392 134.573 -111.41 62.5966 -133.696L61.8963 -131.41C133.239 -109.311 183.53 -62.4673 219.286 -0.535077C288.103 118.66 302.761 293.641 308.58 453.553C311.49 533.508 312.207 609.666 316.431 673.255C320.677 736.831 328.374 787.789 345.524 817.542L347.6 816.344L347.588 816.323Z" fill="url(#paint33_linear_2_2841)"/>
<path d="M364.445 821.314C349.769 795.942 342.125 747.666 336.877 685.803C328.976 592.983 326.297 469.475 312.051 345.727C297.806 221.979 272.001 97.9588 217.719 3.93961C177.589 -65.5682 121.822 -118.687 43.6864 -142.869L42.9861 -140.583C120.455 -116.597 175.717 -64.017 215.644 5.13789C287.624 129.812 309.492 308.269 320.663 468.439C326.254 548.534 329.218 624.031 334.473 686.001C339.761 747.98 347.271 796.361 362.348 822.524L364.424 821.326L364.445 821.314Z" fill="url(#paint34_linear_2_2841)"/>
<path d="M381.321 826.292C375.03 815.395 369.979 798.498 365.769 776.826C351.01 700.888 346.348 566.515 328.931 422.654C311.501 278.772 281.332 125.336 215.331 11.0189C170.659 -66.3549 109.507 -125.829 24.8171 -152.065L24.1168 -149.779C108.128 -123.76 168.776 -64.8246 213.277 12.2052C288.361 142.255 317.067 323.737 333.311 483.828C341.444 563.868 346.485 638.552 352.69 698.812C355.808 728.946 359.193 755.467 363.434 777.288C367.675 799.109 372.715 816.179 379.258 827.511L381.333 826.312L381.321 826.292Z" fill="url(#paint35_linear_2_2841)"/>
<path d="M398.177 831.282C392.905 822.15 388.404 806.733 384.401 786.38C370.368 715.005 362.092 582.663 340.202 438.534C318.312 294.404 282.829 138.474 214.216 19.6323C164.607 -66.2925 97.63 -132.836 5.91807 -161.217L5.21776 -158.931C96.1975 -130.764 162.724 -64.7622 212.141 20.8306C290.232 156.089 325.406 340.147 346.411 499.759C356.923 579.559 363.88 653.248 370.933 711.718C374.47 740.946 377.993 766.364 382.026 786.866C386.058 807.368 390.545 822.903 396.072 832.525L398.148 831.326L398.177 831.282Z" fill="url(#paint36_linear_2_2841)"/>
<path d="M415.033 836.272C410.743 828.842 406.784 814.939 403.019 795.86C389.788 729.086 378.175 599.113 352.127 455.115C326.079 311.117 285.605 153.06 214.52 29.8894C159.555 -65.3128 86.2318 -139.732 -12.9515 -170.413L-13.6518 -168.127C84.7666 -137.669 157.659 -63.8032 212.445 31.0877C293.436 171.369 334.692 357.478 360.089 516.214C372.788 595.582 381.532 668.101 389.316 724.626C393.214 752.899 396.872 777.16 400.664 796.334C404.477 815.496 408.368 829.521 412.957 837.47L415.033 836.272Z" fill="url(#paint37_linear_2_2841)"/>
<path d="M431.889 841.262C428.57 835.513 425.149 823.07 421.625 805.319C409.241 743.175 394.635 615.927 364.755 472.481C334.883 329.002 289.768 169.281 216.277 41.9918C155.513 -63.2557 75.2779 -146.387 -31.8624 -179.586L-32.5627 -177.3C73.7767 -144.385 153.593 -61.7876 214.202 43.1901C297.937 188.224 344.869 375.871 374.288 533.282C389.008 611.981 399.345 683.137 407.76 737.638C411.963 764.905 415.689 787.991 419.249 805.805C422.821 823.639 426.138 836.142 429.793 842.472L431.868 841.274L431.889 841.262Z" fill="url(#paint38_linear_2_2841)"/>
<path d="M448.745 846.253C447.571 844.219 446.225 840.403 444.801 835.109C439.469 815.136 432.829 773.918 423.384 719.071C395.048 554.477 341.328 266.782 219.675 56.026C152.632 -60.097 64.9101 -152.936 -50.7404 -188.749L-51.4407 -186.463C63.3675 -150.911 150.712 -58.6289 217.6 57.2243C303.9 206.7 356.02 395.281 389.111 550.904C405.646 628.721 417.436 698.319 426.376 750.662C430.835 776.84 434.586 798.722 437.894 815.188C439.547 823.42 441.055 830.298 442.518 835.708C443.981 841.117 445.3 845.032 446.69 847.44L448.766 846.241L448.745 846.253Z" fill="url(#paint39_linear_2_2841)"/>
<path d="M465.6 851.243C464.905 850.039 463.893 846.943 462.758 842.341C458.477 825.053 451.863 786.228 441.761 733.31C411.432 574.516 349.72 288.557 224.809 72.1555C151.007 -55.6732 55.0895 -159.305 -69.5983 -197.925L-70.2986 -195.639C53.5556 -157.312 149.108 -54.2171 222.754 73.3418C311.403 226.886 368.232 415.764 404.56 569.13C422.713 645.82 435.77 713.635 445.101 763.732C449.773 788.791 453.512 809.407 456.501 824.506C458.006 832.05 459.312 838.242 460.471 842.886C461.634 847.583 462.593 850.682 463.555 852.396L465.63 851.198L465.6 851.243Z" fill="url(#paint40_linear_2_2841)"/>
<path d="M482.457 856.233C482.385 856.108 482.082 855.343 481.788 854.211C480.597 849.752 478.511 839.14 475.481 823.539C454.215 714.138 385.845 357.499 231.755 90.5603C150.704 -49.8251 45.8715 -165.494 -88.5084 -207.098L-89.2087 -204.812C44.2841 -163.499 148.772 -48.3777 229.68 91.7585C320.401 248.893 381.439 437.39 420.554 588.012C440.128 663.328 454.226 729.158 463.843 776.876C468.658 800.745 472.341 820.066 475.045 833.808C476.38 840.675 477.493 846.148 478.351 850.08C478.791 852.04 479.167 853.649 479.496 854.843C479.838 856.057 480.067 856.838 480.382 857.431L482.457 856.233Z" fill="url(#paint41_linear_2_2841)"/>
<path d="M499.455 861.612C499.455 861.612 425.975 432.376 240.686 111.445C151.869 -42.3896 37.3227 -171.434 -107.398 -216.282L-108.099 -213.996C35.6994 -169.5 149.958 -40.9542 238.631 112.631C331.114 272.817 395.767 460.194 437.248 607.486C457.989 681.132 472.954 744.774 482.733 789.991C487.623 812.599 491.217 830.615 493.578 842.95C494.765 849.127 495.63 853.886 496.221 857.114C496.801 860.322 497.093 861.979 497.084 862.012L499.455 861.612Z" fill="url(#paint42_linear_2_2841)"/>
<g clip-path="url(#clip2_2_2841)">
<g opacity="0.1">
<path d="M65.7952 76.1258V60.672L75.9587 76.1258H82.3913L69.5799 56.8872H60.118V76.1258H65.7952Z" fill="black"/>
<path d="M65.7952 79.9106H60.118V84.9569H65.7952V79.9106Z" fill="black"/>
<path d="M65.7952 88.7416H60.118V102.304H65.7952V88.7416Z" fill="black"/>
<path d="M84.2558 88.7416H90.7925L96.0435 96.627L101.295 88.7416H107.829L98.9117 102.304H93.1754L84.2558 88.7416Z" fill="black"/>
<path d="M125.878 88.7416V102.304H131.555V88.7416H125.878Z" fill="black"/>
<path d="M131.555 84.9569H125.878V79.9106H131.555V84.9569Z" fill="black"/>
<path d="M131.555 76.1258V56.8872H122.507L109.696 76.1258H116.125L125.878 61.2929V76.1258H131.555Z" fill="black"/>
<path d="M113.636 79.9106L110.318 84.9569H103.815L107.175 79.9106H113.636Z" fill="black"/>
<path d="M84.9117 79.9106H78.4478L81.7667 84.9569H88.2721L84.9117 79.9106Z" fill="black"/>
<path d="M149.69 79.9105V84.9568H42.4561V79.9105H149.69Z" fill="black"/>
</g>
<mask id="path-46-inside-1_2_2841" fill="white">
<path fill-rule="evenodd" clip-rule="evenodd" d="M66.1419 59.7503L66.1419 60.7471L66.1419 74.5925L66.1419 75.1402L65.5941 75.1402L61.0359 75.1402L60.4882 75.1402L60.4882 74.5925L60.4882 56.5289L60.4882 55.9812L61.0359 55.9812L69.9109 55.9812L82.3046 74.5925L82.6694 75.1402L82.0113 75.1402L76.2633 75.1402L66.6896 60.5831L66.1419 59.7503ZM65.5941 59.7503L65.5941 74.5925L61.0359 74.5925L61.0359 56.5289L69.6176 56.5289L81.6466 74.5925L76.5587 74.5925L66.5995 59.4493L65.5941 57.9207L65.5941 59.7503ZM60.4882 87.7042L60.4882 88.252L60.4882 100.663L60.4882 101.211L61.0359 101.211L65.5941 101.211L66.1419 101.211L66.1419 100.663L66.1419 88.252L66.1419 87.7042L65.5941 87.7042L61.0359 87.7042L60.4882 87.7042ZM65.5941 100.663L61.0359 100.663L61.0359 88.252L65.5941 88.252L65.5941 100.663ZM95.9361 95.0629L91.0358 87.7042L85.1817 87.7042L84.5262 87.7042L84.8864 88.252L93.4089 101.211L99.1214 101.211L107.642 88.252L108.002 87.7042L107.347 87.7042L101.495 87.7042L96.5942 95.0629L96.2652 95.557L95.9361 95.0629ZM101.788 88.252L96.721 95.8606L96.2652 96.5451L95.8093 95.8606L90.7425 88.252L85.5419 88.252L93.7042 100.663L98.8261 100.663L106.986 88.252L101.788 88.252ZM125.976 101.211L126.524 101.211L131.082 101.211L131.63 101.211L131.63 100.663L131.63 88.252L131.63 87.7042L131.082 87.7042L126.524 87.7042L125.976 87.7042L125.976 88.252L125.976 100.663L125.976 101.211ZM131.082 88.252L131.082 100.663L126.524 100.663L126.524 88.252L131.082 88.252ZM125.976 61.3656L125.976 74.5925L125.976 75.1402L126.524 75.1402L131.082 75.1402L131.63 75.1402L131.63 74.5925L131.63 56.5289L131.63 55.9812L131.082 55.9812L122.62 55.9812L110.226 74.5925L109.861 75.1402L110.519 75.1402L116.263 75.1402L125.428 61.2017L125.976 60.3687L125.976 61.3656ZM115.968 74.5925L125.518 60.0677L126.524 58.5387L126.524 60.3687L126.524 74.5925L131.082 74.5925L131.082 56.5289L122.913 56.5289L110.884 74.5925L115.968 74.5925ZM149.143 79.457L149.143 83.387L43.4471 83.387L43.4471 79.457L149.143 79.457ZM149.69 78.9093L149.69 79.457L149.69 83.387L149.69 83.9347L149.143 83.9347L43.4471 83.9347L42.8994 83.9347L42.8994 83.387L42.8994 79.457L42.8994 78.9093L43.4471 78.9093L149.143 78.9093L149.69 78.9093Z"/>
</mask>
<path fill-rule="evenodd" clip-rule="evenodd" d="M66.1419 59.7503L66.1419 60.7471L66.1419 74.5925L66.1419 75.1402L65.5941 75.1402L61.0359 75.1402L60.4882 75.1402L60.4882 74.5925L60.4882 56.5289L60.4882 55.9812L61.0359 55.9812L69.9109 55.9812L82.3046 74.5925L82.6694 75.1402L82.0113 75.1402L76.2633 75.1402L66.6896 60.5831L66.1419 59.7503ZM65.5941 59.7503L65.5941 74.5925L61.0359 74.5925L61.0359 56.5289L69.6176 56.5289L81.6466 74.5925L76.5587 74.5925L66.5995 59.4493L65.5941 57.9207L65.5941 59.7503ZM60.4882 87.7042L60.4882 88.252L60.4882 100.663L60.4882 101.211L61.0359 101.211L65.5941 101.211L66.1419 101.211L66.1419 100.663L66.1419 88.252L66.1419 87.7042L65.5941 87.7042L61.0359 87.7042L60.4882 87.7042ZM65.5941 100.663L61.0359 100.663L61.0359 88.252L65.5941 88.252L65.5941 100.663ZM95.9361 95.0629L91.0358 87.7042L85.1817 87.7042L84.5262 87.7042L84.8864 88.252L93.4089 101.211L99.1214 101.211L107.642 88.252L108.002 87.7042L107.347 87.7042L101.495 87.7042L96.5942 95.0629L96.2652 95.557L95.9361 95.0629ZM101.788 88.252L96.721 95.8606L96.2652 96.5451L95.8093 95.8606L90.7425 88.252L85.5419 88.252L93.7042 100.663L98.8261 100.663L106.986 88.252L101.788 88.252ZM125.976 101.211L126.524 101.211L131.082 101.211L131.63 101.211L131.63 100.663L131.63 88.252L131.63 87.7042L131.082 87.7042L126.524 87.7042L125.976 87.7042L125.976 88.252L125.976 100.663L125.976 101.211ZM131.082 88.252L131.082 100.663L126.524 100.663L126.524 88.252L131.082 88.252ZM125.976 61.3656L125.976 74.5925L125.976 75.1402L126.524 75.1402L131.082 75.1402L131.63 75.1402L131.63 74.5925L131.63 56.5289L131.63 55.9812L131.082 55.9812L122.62 55.9812L110.226 74.5925L109.861 75.1402L110.519 75.1402L116.263 75.1402L125.428 61.2017L125.976 60.3687L125.976 61.3656ZM115.968 74.5925L125.518 60.0677L126.524 58.5387L126.524 60.3687L126.524 74.5925L131.082 74.5925L131.082 56.5289L122.913 56.5289L110.884 74.5925L115.968 74.5925ZM149.143 79.457L149.143 83.387L43.4471 83.387L43.4471 79.457L149.143 79.457ZM149.69 78.9093L149.69 79.457L149.69 83.387L149.69 83.9347L149.143 83.9347L43.4471 83.9347L42.8994 83.9347L42.8994 83.387L42.8994 79.457L42.8994 78.9093L43.4471 78.9093L149.143 78.9093L149.69 78.9093Z" fill="#1A1A1A"/>
<path d="M66.1419 60.7471L66.9129 60.7471L66.1419 60.7471ZM66.1419 59.7503L66.7861 59.3266L65.3708 57.1747L65.3708 59.7503L66.1419 59.7503ZM66.1419 74.5925L65.3708 74.5925L66.1419 74.5925ZM66.1419 75.1402L66.1419 75.9113L66.9129 75.9113L66.9129 75.1402L66.1419 75.1402ZM60.4882 75.1402L59.7172 75.1402L59.7172 75.9113L60.4882 75.9113L60.4882 75.1402ZM60.4882 74.5925L59.7172 74.5925L60.4882 74.5925ZM60.4882 56.5289L61.2593 56.5289L60.4882 56.5289ZM60.4882 55.9812L60.4882 55.2102L59.7172 55.2102L59.7172 55.9812L60.4882 55.9812ZM69.9109 55.9812L70.5527 55.5538L70.3238 55.2102L69.9109 55.2102L69.9109 55.9812ZM82.3046 74.5925L81.6629 75.0199L81.6629 75.0199L82.3046 74.5925ZM82.6694 75.1402L82.6694 75.9113L84.1091 75.9113L83.3111 74.7129L82.6694 75.1402ZM76.2633 75.1402L75.6191 75.5639L75.8476 75.9113L76.2633 75.9113L76.2633 75.1402ZM66.6896 60.5831L66.0454 61.0068L66.0454 61.0068L66.6896 60.5831ZM65.5941 74.5925L65.5941 75.3635L66.3652 75.3635L66.3652 74.5925L65.5941 74.5925ZM65.5941 59.7503L66.3652 59.7503L65.5941 59.7503ZM61.0359 74.5925L60.2649 74.5925L60.2649 75.3635L61.0359 75.3635L61.0359 74.5925ZM61.0359 56.5289L61.0359 55.7579L60.2649 55.7579L60.2649 56.5289L61.0359 56.5289ZM69.6176 56.5289L70.2594 56.1016L70.0305 55.7579L69.6176 55.7579L69.6176 56.5289ZM81.6466 74.5925L81.6466 75.3635L83.0864 75.3635L82.2883 74.1652L81.6466 74.5925ZM76.5587 74.5925L75.9145 75.0162L76.1429 75.3635L76.5587 75.3635L76.5587 74.5925ZM66.5995 59.4493L67.2437 59.0257L67.2437 59.0257L66.5995 59.4493ZM65.5941 57.9207L66.2383 57.497L64.8231 55.3451L64.8231 57.9207L65.5941 57.9207ZM60.4882 88.252L59.7172 88.252L60.4882 88.252ZM60.4882 87.7042L60.4882 86.9332L59.7172 86.9332L59.7172 87.7042L60.4882 87.7042ZM60.4882 100.663L59.7172 100.663L60.4882 100.663ZM60.4882 101.211L59.7172 101.211L59.7172 101.982L60.4882 101.982L60.4882 101.211ZM66.1419 101.211L66.1419 101.982L66.9129 101.982L66.9129 101.211L66.1419 101.211ZM66.1419 100.663L65.3708 100.663L66.1419 100.663ZM66.1419 88.252L65.3708 88.252L66.1419 88.252ZM66.1419 87.7042L66.9129 87.7042L66.9129 86.9332L66.1419 86.9332L66.1419 87.7042ZM61.0359 100.663L60.2649 100.663L60.2649 101.434L61.0359 101.434L61.0359 100.663ZM65.5941 100.663L65.5941 101.434L66.3652 101.434L66.3652 100.663L65.5941 100.663ZM61.0359 88.252L61.0359 87.4809L60.2649 87.4809L60.2649 88.252L61.0359 88.252ZM65.5941 88.252L66.3652 88.252L66.3652 87.4809L65.5941 87.4809L65.5941 88.252ZM91.0358 87.7042L91.6776 87.2769L91.4487 86.9332L91.0358 86.9332L91.0358 87.7042ZM95.9361 95.0629L95.2944 95.4903L95.2944 95.4903L95.9361 95.0629ZM84.5262 87.7042L84.5262 86.9332L83.0962 86.9332L83.882 88.1279L84.5262 87.7042ZM84.8864 88.252L84.2422 88.6756L84.2422 88.6756L84.8864 88.252ZM93.4089 101.211L92.7647 101.634L92.9931 101.982L93.4089 101.982L93.4089 101.211ZM99.1214 101.211L99.1214 101.982L99.5372 101.982L99.7657 101.634L99.1214 101.211ZM107.642 88.252L106.998 87.8284L106.998 87.8284L107.642 88.252ZM108.002 87.7042L108.646 88.1279L109.432 86.9332L108.002 86.9332L108.002 87.7042ZM101.495 87.7042L101.495 86.9332L101.082 86.9332L100.853 87.2769L101.495 87.7042ZM96.5942 95.0629L95.9524 94.6355L95.9524 94.6355L96.5942 95.0629ZM96.2652 95.557L95.6234 95.9844L96.2652 96.948L96.9069 95.9844L96.2652 95.557ZM96.721 95.8606L96.0793 95.4332L96.0793 95.4332L96.721 95.8606ZM101.788 88.252L101.788 87.4809L101.375 87.4809L101.146 87.8246L101.788 88.252ZM96.2652 96.5451L95.6234 96.9725L96.2651 97.9362L96.9069 96.9725L96.2652 96.5451ZM95.8093 95.8606L95.1675 96.2879L95.1675 96.2879L95.8093 95.8606ZM90.7425 88.252L91.3843 87.8246L91.1554 87.4809L90.7425 87.4809L90.7425 88.252ZM85.5419 88.252L85.5419 87.4809L84.112 87.4809L84.8977 88.6756L85.5419 88.252ZM93.7042 100.663L93.06 101.087L93.2885 101.434L93.7042 101.434L93.7042 100.663ZM98.8261 100.663L98.8261 101.434L99.2419 101.434L99.4703 101.086L98.8261 100.663ZM106.986 88.252L107.631 88.6756L108.416 87.4809L106.986 87.4809L106.986 88.252ZM125.976 101.211L125.205 101.211L125.205 101.982L125.976 101.982L125.976 101.211ZM131.082 101.211L131.082 101.982L131.082 101.211ZM131.63 101.211L131.63 101.982L132.401 101.982L132.401 101.211L131.63 101.211ZM131.63 100.663L130.859 100.663L131.63 100.663ZM131.63 88.252L130.859 88.252L131.63 88.252ZM131.63 87.7042L132.401 87.7042L132.401 86.9332L131.63 86.9332L131.63 87.7042ZM131.082 87.7042L131.082 86.9332L131.082 87.7042ZM126.524 87.7042L126.524 88.4753L126.524 87.7042ZM125.976 87.7042L125.976 86.9332L125.205 86.9332L125.205 87.7042L125.976 87.7042ZM125.976 88.252L125.205 88.252L125.976 88.252ZM125.976 100.663L125.205 100.663L125.976 100.663ZM131.082 100.663L131.082 101.434L131.853 101.434L131.853 100.663L131.082 100.663ZM131.082 88.252L131.853 88.252L131.853 87.4809L131.082 87.4809L131.082 88.252ZM126.524 100.663L125.753 100.663L125.753 101.434L126.524 101.434L126.524 100.663ZM126.524 88.252L126.524 87.4809L125.753 87.4809L125.753 88.252L126.524 88.252ZM125.976 75.1402L125.205 75.1402L125.205 75.9113L125.976 75.9113L125.976 75.1402ZM126.524 75.1402L126.524 74.3692L126.524 75.1402ZM131.082 75.1402L131.082 75.9113L131.082 75.1402ZM131.63 75.1402L131.63 75.9113L132.401 75.9113L132.401 75.1402L131.63 75.1402ZM131.63 74.5925L130.859 74.5925L131.63 74.5925ZM131.63 56.5289L132.401 56.5289L131.63 56.5289ZM131.63 55.9812L132.401 55.9812L132.401 55.2102L131.63 55.2102L131.63 55.9812ZM122.62 55.9812L122.62 55.2102L122.207 55.2102L121.978 55.5538L122.62 55.9812ZM110.226 74.5925L110.868 75.0199L110.868 75.0199L110.226 74.5925ZM109.861 75.1402L109.219 74.7129L108.421 75.9113L109.861 75.9113L109.861 75.1402ZM110.519 75.1402L110.519 75.9113L110.519 75.1402ZM116.263 75.1402L116.263 75.9113L116.679 75.9113L116.908 75.5638L116.263 75.1402ZM125.428 61.2017L124.784 60.778L124.784 60.778L125.428 61.2017ZM125.976 60.3687L126.747 60.3687L126.747 57.7926L125.332 59.945L125.976 60.3687ZM125.518 60.0677L124.874 59.6441L124.874 59.6441L125.518 60.0677ZM115.968 74.5925L115.968 75.3635L116.384 75.3635L116.612 75.0161L115.968 74.5925ZM126.524 58.5387L127.295 58.5387L127.295 55.9627L125.879 58.1151L126.524 58.5387ZM126.524 74.5925L125.753 74.5925L125.753 75.3635L126.524 75.3635L126.524 74.5925ZM131.082 74.5925L131.082 75.3635L131.853 75.3635L131.853 74.5925L131.082 74.5925ZM131.082 56.5289L131.853 56.5289L131.853 55.7579L131.082 55.7579L131.082 56.5289ZM122.913 56.5289L122.913 55.7579L122.5 55.7579L122.271 56.1016L122.913 56.5289ZM110.884 74.5925L110.242 74.1652L109.444 75.3635L110.884 75.3635L110.884 74.5925ZM149.143 83.387L149.143 84.158L149.914 84.158L149.914 83.387L149.143 83.387ZM149.143 79.457L149.914 79.457L149.914 78.686L149.143 78.686L149.143 79.457ZM43.4471 83.387L42.6761 83.387L42.6761 84.158L43.4471 84.158L43.4471 83.387ZM43.4471 79.457L43.4471 78.686L42.6761 78.686L42.6761 79.457L43.4471 79.457ZM149.69 79.457L150.461 79.457L149.69 79.457ZM149.69 78.9093L150.461 78.9093L150.461 78.1382L149.69 78.1382L149.69 78.9093ZM149.69 83.387L148.919 83.387L149.69 83.387ZM149.69 83.9347L149.69 84.7057L150.461 84.7057L150.461 83.9347L149.69 83.9347ZM42.8994 83.9347L42.1284 83.9347L42.1284 84.7057L42.8994 84.7057L42.8994 83.9347ZM42.8994 83.387L42.1284 83.387L42.8994 83.387ZM42.8994 79.457L43.6704 79.457L42.8994 79.457ZM42.8994 78.9093L42.8994 78.1382L42.1284 78.1382L42.1284 78.9093L42.8994 78.9093ZM66.9129 60.7471L66.9129 59.7503L65.3708 59.7503L65.3708 60.7471L66.9129 60.7471ZM66.9129 74.5925L66.9129 60.7471L65.3708 60.7471L65.3708 74.5925L66.9129 74.5925ZM66.9129 75.1402L66.9129 74.5925L65.3708 74.5925L65.3708 75.1402L66.9129 75.1402ZM65.5941 75.9113L66.1419 75.9113L66.1419 74.3692L65.5941 74.3692L65.5941 75.9113ZM61.0359 75.9113L65.5941 75.9113L65.5941 74.3692L61.0359 74.3692L61.0359 75.9113ZM60.4882 75.9113L61.0359 75.9113L61.0359 74.3692L60.4882 74.3692L60.4882 75.9113ZM59.7172 74.5925L59.7172 75.1402L61.2593 75.1402L61.2593 74.5925L59.7172 74.5925ZM59.7172 56.5289L59.7172 74.5925L61.2593 74.5925L61.2593 56.5289L59.7172 56.5289ZM59.7172 55.9812L59.7172 56.5289L61.2593 56.5289L61.2593 55.9812L59.7172 55.9812ZM61.0359 55.2102L60.4882 55.2102L60.4882 56.7522L61.0359 56.7522L61.0359 55.2102ZM69.9109 55.2102L61.0359 55.2102L61.0359 56.7522L69.9109 56.7522L69.9109 55.2102ZM82.9464 74.1652L70.5527 55.5538L69.2692 56.4086L81.6629 75.0199L82.9464 74.1652ZM83.3111 74.7129L82.9464 74.1652L81.6629 75.0199L82.0276 75.5676L83.3111 74.7129ZM82.0113 75.9113L82.6694 75.9113L82.6694 74.3692L82.0113 74.3692L82.0113 75.9113ZM76.2633 75.9113L82.0113 75.9113L82.0113 74.3692L76.2633 74.3692L76.2633 75.9113ZM66.0454 61.0068L75.6191 75.5639L76.9075 74.7166L67.3338 60.1594L66.0454 61.0068ZM65.4976 60.174L66.0454 61.0068L67.3338 60.1594L66.7861 59.3266L65.4976 60.174ZM66.3652 74.5925L66.3652 59.7503L64.8231 59.7503L64.8231 74.5925L66.3652 74.5925ZM61.0359 75.3635L65.5941 75.3635L65.5941 73.8215L61.0359 73.8215L61.0359 75.3635ZM60.2649 56.5289L60.2649 74.5925L61.807 74.5925L61.807 56.5289L60.2649 56.5289ZM69.6176 55.7579L61.0359 55.7579L61.0359 57.2999L69.6176 57.2999L69.6176 55.7579ZM82.2883 74.1652L70.2594 56.1016L68.9759 56.9563L81.0048 75.0199L82.2883 74.1652ZM76.5587 75.3635L81.6466 75.3635L81.6466 73.8215L76.5587 73.8215L76.5587 75.3635ZM65.9553 59.873L75.9145 75.0162L77.2029 74.1688L67.2437 59.0257L65.9553 59.873ZM64.9499 58.3444L65.9553 59.873L67.2437 59.0257L66.2383 57.497L64.9499 58.3444ZM66.3652 59.7503L66.3652 57.9207L64.8231 57.9207L64.8231 59.7503L66.3652 59.7503ZM61.2593 88.252L61.2593 87.7042L59.7172 87.7042L59.7172 88.252L61.2593 88.252ZM61.2593 100.663L61.2593 88.252L59.7172 88.252L59.7172 100.663L61.2593 100.663ZM61.2593 101.211L61.2593 100.663L59.7172 100.663L59.7172 101.211L61.2593 101.211ZM61.0359 100.44L60.4882 100.44L60.4882 101.982L61.0359 101.982L61.0359 100.44ZM65.5941 100.44L61.0359 100.44L61.0359 101.982L65.5941 101.982L65.5941 100.44ZM66.1419 100.44L65.5941 100.44L65.5941 101.982L66.1419 101.982L66.1419 100.44ZM65.3708 100.663L65.3708 101.211L66.9129 101.211L66.9129 100.663L65.3708 100.663ZM65.3708 88.252L65.3708 100.663L66.9129 100.663L66.9129 88.252L65.3708 88.252ZM65.3708 87.7042L65.3708 88.252L66.9129 88.252L66.9129 87.7042L65.3708 87.7042ZM65.5941 88.4753L66.1419 88.4753L66.1419 86.9332L65.5941 86.9332L65.5941 88.4753ZM61.0359 88.4753L65.5941 88.4753L65.5941 86.9332L61.0359 86.9332L61.0359 88.4753ZM60.4882 88.4753L61.0359 88.4753L61.0359 86.9332L60.4882 86.9332L60.4882 88.4753ZM61.0359 101.434L65.5941 101.434L65.5941 99.8919L61.0359 99.8919L61.0359 101.434ZM60.2649 88.252L60.2649 100.663L61.807 100.663L61.807 88.252L60.2649 88.252ZM65.5941 87.4809L61.0359 87.4809L61.0359 89.023L65.5941 89.023L65.5941 87.4809ZM66.3652 100.663L66.3652 88.252L64.8231 88.252L64.8231 100.663L66.3652 100.663ZM90.394 88.1316L95.2944 95.4903L96.5779 94.6355L91.6776 87.2769L90.394 88.1316ZM85.1817 88.4753L91.0358 88.4753L91.0358 86.9332L85.1817 86.9332L85.1817 88.4753ZM84.5262 88.4753L85.1817 88.4753L85.1817 86.9332L84.5262 86.9332L84.5262 88.4753ZM85.5306 87.8283L85.1704 87.2806L83.882 88.1279L84.2422 88.6756L85.5306 87.8283ZM94.0531 100.787L85.5306 87.8283L84.2422 88.6756L92.7647 101.634L94.0531 100.787ZM99.1214 100.44L93.4089 100.44L93.4089 101.982L99.1214 101.982L99.1214 100.44ZM106.998 87.8284L98.4772 100.787L99.7657 101.634L108.286 88.6756L106.998 87.8284ZM107.358 87.2806L106.998 87.8284L108.286 88.6756L108.646 88.1279L107.358 87.2806ZM107.347 88.4753L108.002 88.4753L108.002 86.9332L107.347 86.9332L107.347 88.4753ZM101.495 88.4753L107.347 88.4753L107.347 86.9332L101.495 86.9332L101.495 88.4753ZM97.2359 95.4903L102.136 88.1316L100.853 87.2769L95.9524 94.6355L97.2359 95.4903ZM96.9069 95.9844L97.2359 95.4903L95.9524 94.6355L95.6234 95.1296L96.9069 95.9844ZM95.2944 95.4903L95.6234 95.9844L96.9069 95.1296L96.5779 94.6355L95.2944 95.4903ZM97.3628 96.288L102.43 88.6793L101.146 87.8246L96.0793 95.4332L97.3628 96.288ZM96.9069 96.9725L97.3628 96.288L96.0793 95.4332L95.6234 96.1178L96.9069 96.9725ZM95.1675 96.2879L95.6234 96.9725L96.9069 96.1178L96.451 95.4332L95.1675 96.2879ZM90.1007 88.6793L95.1675 96.2879L96.451 95.4332L91.3843 87.8246L90.1007 88.6793ZM85.5419 89.023L90.7425 89.023L90.7425 87.4809L85.5419 87.4809L85.5419 89.023ZM94.3484 100.239L86.1861 87.8283L84.8977 88.6756L93.06 101.087L94.3484 100.239ZM98.8261 99.8919L93.7042 99.8919L93.7042 101.434L98.8261 101.434L98.8261 99.8919ZM106.342 87.8284L98.1818 100.239L99.4703 101.086L107.631 88.6756L106.342 87.8284ZM101.788 89.023L106.986 89.023L106.986 87.4809L101.788 87.4809L101.788 89.023ZM126.524 100.44L125.976 100.44L125.976 101.982L126.524 101.982L126.524 100.44ZM131.082 100.44L126.524 100.44L126.524 101.982L131.082 101.982L131.082 100.44ZM131.63 100.44L131.082 100.44L131.082 101.982L131.63 101.982L131.63 100.44ZM130.859 100.663L130.859 101.211L132.401 101.211L132.401 100.663L130.859 100.663ZM130.859 88.252L130.859 100.663L132.401 100.663L132.401 88.252L130.859 88.252ZM130.859 87.7042L130.859 88.252L132.401 88.252L132.401 87.7042L130.859 87.7042ZM131.082 88.4753L131.63 88.4753L131.63 86.9332L131.082 86.9332L131.082 88.4753ZM126.524 88.4753L131.082 88.4753L131.082 86.9332L126.524 86.9332L126.524 88.4753ZM125.976 88.4753L126.524 88.4753L126.524 86.9332L125.976 86.9332L125.976 88.4753ZM126.747 88.252L126.747 87.7042L125.205 87.7042L125.205 88.252L126.747 88.252ZM126.747 100.663L126.747 88.252L125.205 88.252L125.205 100.663L126.747 100.663ZM126.747 101.211L126.747 100.663L125.205 100.663L125.205 101.211L126.747 101.211ZM131.853 100.663L131.853 88.252L130.311 88.252L130.311 100.663L131.853 100.663ZM126.524 101.434L131.082 101.434L131.082 99.8919L126.524 99.8919L126.524 101.434ZM125.753 88.252L125.753 100.663L127.295 100.663L127.295 88.252L125.753 88.252ZM131.082 87.4809L126.524 87.4809L126.524 89.023L131.082 89.023L131.082 87.4809ZM126.747 74.5925L126.747 61.3656L125.205 61.3656L125.205 74.5925L126.747 74.5925ZM126.747 75.1402L126.747 74.5925L125.205 74.5925L125.205 75.1402L126.747 75.1402ZM126.524 74.3692L125.976 74.3692L125.976 75.9113L126.524 75.9113L126.524 74.3692ZM131.082 74.3692L126.524 74.3692L126.524 75.9113L131.082 75.9113L131.082 74.3692ZM131.63 74.3692L131.082 74.3692L131.082 75.9113L131.63 75.9113L131.63 74.3692ZM130.859 74.5925L130.859 75.1402L132.401 75.1402L132.401 74.5925L130.859 74.5925ZM130.859 56.5289L130.859 74.5925L132.401 74.5925L132.401 56.5289L130.859 56.5289ZM130.859 55.9812L130.859 56.5289L132.401 56.5289L132.401 55.9812L130.859 55.9812ZM131.082 56.7522L131.63 56.7522L131.63 55.2102L131.082 55.2102L131.082 56.7522ZM122.62 56.7522L131.082 56.7522L131.082 55.2102L122.62 55.2102L122.62 56.7522ZM110.868 75.0199L123.261 56.4086L121.978 55.5538L109.584 74.1652L110.868 75.0199ZM110.503 75.5676L110.868 75.0199L109.584 74.1652L109.219 74.7129L110.503 75.5676ZM110.519 74.3692L109.861 74.3692L109.861 75.9113L110.519 75.9113L110.519 74.3692ZM116.263 74.3692L110.519 74.3692L110.519 75.9113L116.263 75.9113L116.263 74.3692ZM124.784 60.778L115.619 74.7166L116.908 75.5638L126.072 61.6253L124.784 60.778ZM125.332 59.945L124.784 60.778L126.072 61.6253L126.62 60.7923L125.332 59.945ZM126.747 61.3656L126.747 60.3687L125.205 60.3687L125.205 61.3656L126.747 61.3656ZM124.874 59.6441L115.324 74.1689L116.612 75.0161L126.163 60.4913L124.874 59.6441ZM125.879 58.1151L124.874 59.6441L126.163 60.4913L127.168 58.9623L125.879 58.1151ZM127.295 60.3687L127.295 58.5387L125.753 58.5387L125.753 60.3687L127.295 60.3687ZM127.295 74.5925L127.295 60.3687L125.753 60.3687L125.753 74.5925L127.295 74.5925ZM131.082 73.8215L126.524 73.8215L126.524 75.3635L131.082 75.3635L131.082 73.8215ZM130.311 56.5289L130.311 74.5925L131.853 74.5925L131.853 56.5289L130.311 56.5289ZM122.913 57.2999L131.082 57.2999L131.082 55.7579L122.913 55.7579L122.913 57.2999ZM111.526 75.0199L123.555 56.9563L122.271 56.1016L110.242 74.1652L111.526 75.0199ZM115.968 73.8215L110.884 73.8215L110.884 75.3635L115.968 75.3635L115.968 73.8215ZM149.914 83.387L149.914 79.457L148.372 79.457L148.372 83.387L149.914 83.387ZM43.4471 84.158L149.143 84.158L149.143 82.616L43.4471 82.616L43.4471 84.158ZM42.6761 79.457L42.6761 83.387L44.2182 83.387L44.2182 79.457L42.6761 79.457ZM149.143 78.686L43.4471 78.686L43.4471 80.228L149.143 80.228L149.143 78.686ZM150.461 79.457L150.461 78.9093L148.919 78.9093L148.919 79.457L150.461 79.457ZM150.461 83.387L150.461 79.457L148.919 79.457L148.919 83.387L150.461 83.387ZM150.461 83.9347L150.461 83.387L148.919 83.387L148.919 83.9347L150.461 83.9347ZM149.143 84.7057L149.69 84.7057L149.69 83.1637L149.143 83.1637L149.143 84.7057ZM43.4471 84.7057L149.143 84.7057L149.143 83.1637L43.4471 83.1637L43.4471 84.7057ZM42.8994 84.7057L43.4471 84.7057L43.4471 83.1637L42.8994 83.1637L42.8994 84.7057ZM42.1284 83.387L42.1284 83.9347L43.6704 83.9347L43.6704 83.387L42.1284 83.387ZM42.1284 79.457L42.1284 83.387L43.6704 83.387L43.6704 79.457L42.1284 79.457ZM42.1284 78.9093L42.1284 79.457L43.6704 79.457L43.6704 78.9093L42.1284 78.9093ZM43.4471 78.1382L42.8994 78.1382L42.8994 79.6803L43.4471 79.6803L43.4471 78.1382ZM149.143 78.1382L43.4471 78.1382L43.4471 79.6803L149.143 79.6803L149.143 78.1382ZM149.69 78.1382L149.143 78.1382L149.143 79.6803L149.69 79.6803L149.69 78.1382Z" fill="url(#paint43_linear_2_2841)" mask="url(#path-46-inside-1_2_2841)"/>
</g>
</g>
</g>
<defs>
<linearGradient id="paint0_linear_2_2841" x1="197.5" y1="20.5" x2="198.391" y2="553.499" gradientUnits="userSpaceOnUse">
<stop stop-color="#616161"/>
<stop offset="1" stop-color="#4F4F4F" stop-opacity="0.5"/>
</linearGradient>
<linearGradient id="paint1_linear_2_2841" x1="575.529" y1="8.19888" x2="-285.732" y2="505.448" gradientUnits="userSpaceOnUse">
<stop stop-color="#FF6B26"/>
<stop offset="1" stop-color="#1A1A1A"/>
</linearGradient>
<linearGradient id="paint2_linear_2_2841" x1="575.44" y1="26.4247" x2="-265.585" y2="511.991" gradientUnits="userSpaceOnUse">
<stop stop-color="#FF6B26"/>
<stop offset="0.51" stop-color="#884120"/>
<stop offset="1" stop-color="#1A1A1A"/>
</linearGradient>
<linearGradient id="paint3_linear_2_2841" x1="566.118" y1="42.2644" x2="-254.339" y2="515.956" gradientUnits="userSpaceOnUse">
<stop stop-color="#FF6B26"/>
<stop offset="0.51" stop-color="#854020"/>
<stop offset="1" stop-color="#1A1A1A"/>
</linearGradient>
<linearGradient id="paint4_linear_2_2841" x1="568.598" y1="61.695" x2="-231.395" y2="523.571" gradientUnits="userSpaceOnUse">
<stop stop-color="#FF6B26"/>
<stop offset="0.51" stop-color="#833F20"/>
<stop offset="1" stop-color="#1A1A1A"/>
</linearGradient>
<linearGradient id="paint5_linear_2_2841" x1="569.13" y1="80.2832" x2="-210.481" y2="530.392" gradientUnits="userSpaceOnUse">
<stop stop-color="#FF6B26"/>
<stop offset="0.51" stop-color="#803E1F"/>
<stop offset="1" stop-color="#1A1A1A"/>
</linearGradient>
<linearGradient id="paint6_linear_2_2841" x1="565.899" y1="97.4732" x2="-193.415" y2="535.863" gradientUnits="userSpaceOnUse">
<stop stop-color="#FF6B26"/>
<stop offset="0.51" stop-color="#7D3D1F"/>
<stop offset="1" stop-color="#1A1A1A"/>
</linearGradient>
<linearGradient id="paint7_linear_2_2841" x1="557.063" y1="112.613" x2="-182.036" y2="539.332" gradientUnits="userSpaceOnUse">
<stop stop-color="#FF6B26"/>
<stop offset="0.51" stop-color="#7A3C1F"/>
<stop offset="1" stop-color="#1A1A1A"/>
</linearGradient>
<linearGradient id="paint8_linear_2_2841" x1="552.774" y1="128.946" x2="-166.213" y2="544.053" gradientUnits="userSpaceOnUse">
<stop stop-color="#FF6B26"/>
<stop offset="0.51" stop-color="#783B1F"/>
<stop offset="1" stop-color="#1A1A1A"/>
</linearGradient>
<linearGradient id="paint9_linear_2_2841" x1="550.938" y1="145.713" x2="-148.042" y2="549.269" gradientUnits="userSpaceOnUse">
<stop stop-color="#FF6B26"/>
<stop offset="0.51" stop-color="#753A1F"/>
<stop offset="1" stop-color="#1A1A1A"/>
</linearGradient>
<linearGradient id="paint10_linear_2_2841" x1="549.384" y1="162.18" x2="-129.692" y2="554.245" gradientUnits="userSpaceOnUse">
<stop stop-color="#FF6B26"/>
<stop offset="0.51" stop-color="#72391F"/>
<stop offset="1" stop-color="#1A1A1A"/>
</linearGradient>
<linearGradient id="paint11_linear_2_2841" x1="545.872" y1="177.533" x2="-113.404" y2="558.166" gradientUnits="userSpaceOnUse">
<stop stop-color="#FF6B26"/>
<stop offset="0.51" stop-color="#6F381F"/>
<stop offset="1" stop-color="#1A1A1A"/>
</linearGradient>
<linearGradient id="paint12_linear_2_2841" x1="537.89" y1="190.872" x2="-101.689" y2="560.133" gradientUnits="userSpaceOnUse">
<stop stop-color="#FF6B26"/>
<stop offset="0.51" stop-color="#6D371E"/>
<stop offset="1" stop-color="#1A1A1A"/>
</linearGradient>
<linearGradient id="paint13_linear_2_2841" x1="532.477" y1="200.567" x2="-87.5309" y2="558.528" gradientUnits="userSpaceOnUse">
<stop stop-color="#FF6B26"/>
<stop offset="0.51" stop-color="#6A361E"/>
<stop offset="1" stop-color="#1A1A1A"/>
</linearGradient>
<linearGradient id="paint14_linear_2_2841" x1="526.599" y1="205.106" x2="-73.961" y2="551.84" gradientUnits="userSpaceOnUse">
<stop stop-color="#FF6B26"/>
<stop offset="0.51" stop-color="#67351E"/>
<stop offset="1" stop-color="#1A1A1A"/>
</linearGradient>
<linearGradient id="paint15_linear_2_2841" x1="508.936" y1="205.793" x2="-72.2806" y2="541.359" gradientUnits="userSpaceOnUse">
<stop stop-color="#FF6B26"/>
<stop offset="0.51" stop-color="#64341E"/>
<stop offset="1" stop-color="#1A1A1A"/>
</linearGradient>
<linearGradient id="paint16_linear_2_2841" x1="500.792" y1="209.395" x2="-61.2267" y2="533.876" gradientUnits="userSpaceOnUse">
<stop stop-color="#FF6B26"/>
<stop offset="0.51" stop-color="#62331E"/>
<stop offset="1" stop-color="#1A1A1A"/>
</linearGradient>
<linearGradient id="paint17_linear_2_2841" x1="499.262" y1="214.96" x2="-43.7038" y2="528.442" gradientUnits="userSpaceOnUse">
<stop stop-color="#FF6B26"/>
<stop offset="0.51" stop-color="#5F321E"/>
<stop offset="1" stop-color="#1A1A1A"/>
</linearGradient>
<linearGradient id="paint18_linear_2_2841" x1="488.995" y1="217.625" x2="-35.0424" y2="520.178" gradientUnits="userSpaceOnUse">
<stop stop-color="#FF6B26"/>
<stop offset="0.51" stop-color="#5C311E"/>
<stop offset="1" stop-color="#1A1A1A"/>
</linearGradient>
<linearGradient id="paint19_linear_2_2841" x1="478.855" y1="220.216" x2="-26.3998" y2="511.925" gradientUnits="userSpaceOnUse">
<stop stop-color="#FF6B26"/>
<stop offset="0.51" stop-color="#59301D"/>
<stop offset="1" stop-color="#1A1A1A"/>
</linearGradient>
<linearGradient id="paint20_linear_2_2841" x1="465.291" y1="221.57" x2="-21.3259" y2="502.519" gradientUnits="userSpaceOnUse">
<stop stop-color="#FF6B26"/>
<stop offset="0.51" stop-color="#572F1D"/>
<stop offset="1" stop-color="#1A1A1A"/>
</linearGradient>
<linearGradient id="paint21_linear_2_2841" x1="456.73" y1="224.381" x2="-11.4152" y2="494.664" gradientUnits="userSpaceOnUse">
<stop stop-color="#FF6B26"/>
<stop offset="0.51" stop-color="#542E1D"/>
<stop offset="1" stop-color="#1A1A1A"/>
</linearGradient>
<linearGradient id="paint22_linear_2_2841" x1="449.293" y1="227.396" x2="-0.545864" y2="487.11" gradientUnits="userSpaceOnUse">
<stop stop-color="#FF6B26"/>
<stop offset="0.51" stop-color="#512E1D"/>
<stop offset="1" stop-color="#1A1A1A"/>
</linearGradient>
<linearGradient id="paint23_linear_2_2841" x1="438.891" y1="229.326" x2="7.19199" y2="478.568" gradientUnits="userSpaceOnUse">
<stop stop-color="#FF6B26"/>
<stop offset="0.51" stop-color="#4E2D1D"/>
<stop offset="1" stop-color="#1A1A1A"/>
</linearGradient>
<linearGradient id="paint24_linear_2_2841" x1="433.296" y1="232.602" x2="19.549" y2="471.479" gradientUnits="userSpaceOnUse">
<stop stop-color="#FF6B26"/>
<stop offset="0.51" stop-color="#4C2C1D"/>
<stop offset="1" stop-color="#1A1A1A"/>
</linearGradient>
<linearGradient id="paint25_linear_2_2841" x1="427.893" y1="235.792" x2="31.9123" y2="464.412" gradientUnits="userSpaceOnUse">
<stop stop-color="#FF6B26"/>
<stop offset="0.51" stop-color="#492B1C"/>
<stop offset="1" stop-color="#1A1A1A"/>
</linearGradient>
<linearGradient id="paint26_linear_2_2841" x1="417.874" y1="237.329" x2="39.4729" y2="455.799" gradientUnits="userSpaceOnUse">
<stop stop-color="#FF6B26"/>
<stop offset="0.51" stop-color="#462A1C"/>
<stop offset="1" stop-color="#1A1A1A"/>
</linearGradient>
<linearGradient id="paint27_linear_2_2841" x1="410.208" y1="239.44" x2="49.1787" y2="447.88" gradientUnits="userSpaceOnUse">
<stop stop-color="#FF6B26"/>
<stop offset="0.51" stop-color="#43291C"/>
<stop offset="1" stop-color="#1A1A1A"/>
</linearGradient>
<linearGradient id="paint28_linear_2_2841" x1="399.53" y1="240.41" x2="55.6643" y2="438.94" gradientUnits="userSpaceOnUse">
<stop stop-color="#FF6B26"/>
<stop offset="0.51" stop-color="#41281C"/>
<stop offset="1" stop-color="#1A1A1A"/>
</linearGradient>
<linearGradient id="paint29_linear_2_2841" x1="392.193" y1="242.215" x2="65.2639" y2="430.968" gradientUnits="userSpaceOnUse">
<stop stop-color="#FF6B26"/>
<stop offset="0.51" stop-color="#3E271C"/>
<stop offset="1" stop-color="#1A1A1A"/>
</linearGradient>
<linearGradient id="paint30_linear_2_2841" x1="382.124" y1="242.966" x2="71.9026" y2="422.072" gradientUnits="userSpaceOnUse">
<stop stop-color="#FF6B26"/>
<stop offset="0.51" stop-color="#3B261C"/>
<stop offset="1" stop-color="#1A1A1A"/>
</linearGradient>
<linearGradient id="paint31_linear_2_2841" x1="374.997" y1="244.422" x2="81.2339" y2="414.026" gradientUnits="userSpaceOnUse">
<stop stop-color="#FF6B26"/>
<stop offset="0.51" stop-color="#38251C"/>
<stop offset="1" stop-color="#1A1A1A"/>
</linearGradient>
<linearGradient id="paint32_linear_2_2841" x1="376.117" y1="248.28" x2="98.5427" y2="408.537" gradientUnits="userSpaceOnUse">
<stop stop-color="#FF6B26"/>
<stop offset="0.51" stop-color="#36241B"/>
<stop offset="1" stop-color="#1A1A1A"/>
</linearGradient>
<linearGradient id="paint33_linear_2_2841" x1="366.168" y1="248.37" x2="104.534" y2="399.425" gradientUnits="userSpaceOnUse">
<stop stop-color="#FF6B26"/>
<stop offset="0.51" stop-color="#33231B"/>
<stop offset="1" stop-color="#1A1A1A"/>
</linearGradient>
<linearGradient id="paint34_linear_2_2841" x1="361.681" y1="249.952" x2="115.695" y2="391.972" gradientUnits="userSpaceOnUse">
<stop stop-color="#FF6B26"/>
<stop offset="0.51" stop-color="#30221B"/>
<stop offset="1" stop-color="#1A1A1A"/>
</linearGradient>
<linearGradient id="paint35_linear_2_2841" x1="354.53" y1="250.411" x2="123.903" y2="383.564" gradientUnits="userSpaceOnUse">
<stop stop-color="#FF6B26"/>
<stop offset="0.51" stop-color="#2D211B"/>
<stop offset="1" stop-color="#1A1A1A"/>
</linearGradient>
<linearGradient id="paint36_linear_2_2841" x1="348.213" y1="250.855" x2="132.633" y2="375.32" gradientUnits="userSpaceOnUse">
<stop stop-color="#FF6B26"/>
<stop offset="0.51" stop-color="#2B201B"/>
<stop offset="1" stop-color="#1A1A1A"/>
</linearGradient>
<linearGradient id="paint37_linear_2_2841" x1="345.682" y1="252.208" x2="144.817" y2="368.177" gradientUnits="userSpaceOnUse">
<stop stop-color="#FF6B26"/>
<stop offset="0.51" stop-color="#281F1B"/>
<stop offset="1" stop-color="#1A1A1A"/>
</linearGradient>
<linearGradient id="paint38_linear_2_2841" x1="337.204" y1="251.372" x2="150.723" y2="359.037" gradientUnits="userSpaceOnUse">
<stop stop-color="#FF6B26"/>
<stop offset="0.51" stop-color="#251E1B"/>
<stop offset="1" stop-color="#1A1A1A"/>
</linearGradient>
<linearGradient id="paint39_linear_2_2841" x1="336.728" y1="252.776" x2="164.256" y2="352.353" gradientUnits="userSpaceOnUse">
<stop stop-color="#FF6B26"/>
<stop offset="0.51" stop-color="#221D1A"/>
<stop offset="1" stop-color="#1A1A1A"/>
</linearGradient>
<linearGradient id="paint40_linear_2_2841" x1="333.323" y1="252.875" x2="174.486" y2="344.579" gradientUnits="userSpaceOnUse">
<stop stop-color="#FF6B26"/>
<stop offset="0.51" stop-color="#201C1A"/>
<stop offset="1" stop-color="#1A1A1A"/>
</linearGradient>
<linearGradient id="paint41_linear_2_2841" x1="327.471" y1="251.864" x2="181.876" y2="335.923" gradientUnits="userSpaceOnUse">
<stop stop-color="#FF6B26"/>
<stop offset="0.51" stop-color="#1D1B1A"/>
<stop offset="1" stop-color="#1A1A1A"/>
</linearGradient>
<linearGradient id="paint42_linear_2_2841" x1="320.4" y1="250.224" x2="187.694" y2="326.842" gradientUnits="userSpaceOnUse">
<stop stop-color="#FF6B26"/>
<stop offset="0.51" stop-color="#1A1A1A"/>
<stop offset="1" stop-color="#1A1A1A"/>
</linearGradient>
<linearGradient id="paint43_linear_2_2841" x1="46.8968" y1="54.9301" x2="25.0877" y2="153.403" gradientUnits="userSpaceOnUse">
<stop stop-color="#525252"/>
<stop offset="1" stop-color="white" stop-opacity="0"/>
</linearGradient>
<clipPath id="clip0_2_2841">
<rect width="355" height="533" fill="white" transform="translate(20 20.5)"/>
</clipPath>
<clipPath id="clip1_2_2841">
<rect width="994.499" height="1236.91" fill="white" transform="translate(928.912 613.665) rotate(150)"/>
</clipPath>
<clipPath id="clip2_2_2841">
<rect width="107.352" height="46.008" fill="white" transform="translate(42.7617 55.4688)"/>
</clipPath>
</defs>
</svg>
