<svg xmlns="http://www.w3.org/2000/svg" width="25" height="25" viewBox="0 0 25 25" fill="none">
<g clip-path="url(#clip0_802_2464)">
<path d="M12.0649 8.09375C12.8934 8.09375 13.5649 7.42218 13.5649 6.59375C13.5649 5.76532 12.8934 5.09375 12.0649 5.09375C11.2365 5.09375 10.5649 5.76532 10.5649 6.59375C10.5649 7.42218 11.2365 8.09375 12.0649 8.09375Z" fill="#6C6C6C"/>
<path d="M12.0649 14.4688C12.8934 14.4688 13.5649 13.7972 13.5649 12.9688C13.5649 12.1403 12.8934 11.4688 12.0649 11.4688C11.2365 11.4688 10.5649 12.1403 10.5649 12.9688C10.5649 13.7972 11.2365 14.4688 12.0649 14.4688Z" fill="#6C6C6C"/>
<path d="M12.0649 20.8438C12.8934 20.8438 13.5649 20.1722 13.5649 19.3438C13.5649 18.5153 12.8934 17.8438 12.0649 17.8438C11.2365 17.8438 10.5649 18.5153 10.5649 19.3438C10.5649 20.1722 11.2365 20.8438 12.0649 20.8438Z" fill="#6C6C6C"/>
</g>
<defs>
<clipPath id="clip0_802_2464">
<rect width="24" height="24" fill="white" transform="translate(0.0649414 0.96875)"/>
</clipPath>
</defs>
</svg>